<svg width="48" height="48" fill="none" xmlns="http://www.w3.org/2000/svg"><path d="M41.6 30.052l2.991-.974-19.478-14.47s-1.391-2.712-1.6-3.965c-.209-1.252-.07-1.739-.417-2.504-1.044.348-1.74 3.687-1.74 3.687L18.782 9.74l-1.321 3.27-2.574-1.809-1.391 2.574-2.713-1.46-1.392 2.503-2.365-1.39-1.252 2.295-2.644-1.113s.348 4.591 3.13 7.026c2.853 2.435 18.505 13.843 18.505 13.843L41.6 30.052z" fill="#FFF4EA"/><path d="M5.844 21.635C4.8 20.8 2.922 18.226 3.06 14.26l2.783 1.53 1.182-2.434 2.505 1.46 1.182-2.643 2.783 1.67 1.322-2.853 2.574 1.6 1.39-2.782s2.227 1.53 2.436 1.67c.208-1.462 2.017-3.757 2.017-3.757M26.087 15.305c-.835-.557-2.226-1.81-2.852-7.653" stroke="#002140" stroke-linecap="round" stroke-linejoin="round"/><path d="M25.67 15.026L44.59 29.148l-19.826 6.608L5.843 21.635" stroke="#002140" stroke-linecap="round" stroke-linejoin="round"/><path d="M21.704 21.356L7.861 29.635l21.913 10.713 14.052-8.557-22.122-10.435z" fill="#02AD68"/><path d="M21.913 25.6c.974-.209 1.6-.904 1.46-1.53-.138-.627-1.043-.974-1.947-.766-.974.209-1.6.905-1.46 1.53.069.627.973.975 1.947.766zM14.539 30.191c.835-.208 1.46-.834 1.322-1.46-.14-.627-.974-.974-1.809-.835-.835.208-1.46.834-1.322 1.46.14.696.905 1.044 1.809.835zM37.565 33.46c.835-.208 1.461-.834 1.322-1.46s-.974-.974-1.809-.835c-.834.209-1.46.835-1.321 1.461.139.696.974 1.044 1.808.835z" fill="#5CDCA4"/><path d="M43.687 32L21.565 21.148 7.652 29.704l22.261 10.644L43.687 32z" stroke="#002140" stroke-linecap="round" stroke-linejoin="round"/><path d="M14.54 30.26c.973-.208 1.669-.973 1.53-1.738-.14-.766-1.113-1.183-2.087-.974-.974.208-1.67.974-1.53 1.739.138.765 1.112 1.182 2.086.974zM37.496 33.67c.974-.21 1.67-.974 1.53-1.74-.139-.765-1.113-1.182-2.087-.974-.974.21-1.67.974-1.53 1.74.139.765 1.113 1.182 2.087.973zM21.913 25.74c.974-.21 1.67-.975 1.53-1.74-.138-.765-1.112-1.183-2.086-.974-.974.209-1.67.974-1.53 1.74.138.765 1.112 1.182 2.086.973z" stroke="#002140" stroke-linecap="round" stroke-linejoin="round"/><path d="M26.156 17.878l-15.304 5.148 19.13 15.096 15.514-5.357-19.34-14.887z" fill="#02AD68"/><path d="M25.392 22.052c.973 0 1.739-.487 1.739-1.182 0-.627-.766-1.183-1.74-1.183-.973 0-1.739.556-1.739 1.183 0 .695.835 1.182 1.74 1.182zM17.252 24.974c.905 0 1.6-.487 1.6-1.183 0-.626-.695-1.182-1.6-1.182-.904 0-1.6.487-1.6 1.182 0 .696.696 1.183 1.6 1.183zM30.887 35.756c.904 0 1.6-.487 1.6-1.182 0-.626-.696-1.183-1.6-1.183-.904 0-1.6.487-1.6 1.183.07.626.765 1.182 1.6 1.182zM39.096 33.113c.904 0 1.6-.487 1.6-1.182 0-.626-.696-1.183-1.6-1.183-.905 0-1.6.487-1.6 1.183 0 .626.695 1.182 1.6 1.182zM31.096 26.157s-4.452-2.992-6.609-1.948c-2.156 1.043-.348 4.452.765 5.287 1.114.835 4.592 2.782 6.679 1.808 2.087-.973.208-4.66-.835-5.147z" fill="#5CDCA4"/><path d="M45.357 32.974l-19.34-15.305-15.373 5.357 19.478 15.096 15.235-5.148z" stroke="#002140" stroke-linecap="round" stroke-linejoin="round"/><path d="M17.252 25.043c1.044 0 1.809-.626 1.809-1.391s-.835-1.391-1.809-1.391c-1.043 0-1.808.626-1.808 1.391-.07.765.765 1.391 1.808 1.391zM30.956 35.965c1.044 0 1.809-.626 1.809-1.391s-.835-1.391-1.809-1.391c-1.043 0-1.808.626-1.808 1.39-.07.766.765 1.392 1.808 1.392zM38.957 33.252c1.043 0 1.808-.626 1.808-1.391s-.834-1.391-1.808-1.391c-1.044 0-1.81.626-1.81 1.391s.836 1.391 1.81 1.391zM25.391 22.191c1.044 0 1.809-.626 1.809-1.391s-.835-1.391-1.809-1.391c-1.043 0-1.808.626-1.808 1.391s.765 1.391 1.808 1.391zM32.626 30.678c.905-1.46-.417-3.896-2.921-5.496-2.505-1.6-5.357-1.739-6.261-.278-.905 1.461.417 3.896 2.921 5.496 2.574 1.53 5.357 1.67 6.261.278z" stroke="#002140" stroke-linecap="round" stroke-linejoin="round"/><path d="M27.061 22.956s.974 1.948 7.374 1.74c6.47-.21 7.165-1.461 7.165-1.879 0-.417-2.922-1.739-6.817-1.67-3.896.07-7.583.488-7.722 1.81z" fill="#F8D004"/><path d="M27.617 22.33c.626.418 1.461.487 2.226.348.765-.139 1.461-.348 2.226-.487.905-.139 1.74 0 2.644 0 .348 0 .695 0 1.043-.208a.904.904 0 00.557-.835s-2.644-.07-4.73.07c-2.088.208-3.966 1.112-3.966 1.112z" fill="#FFE789"/><path d="M27.2 23.304v2.157s2.713 1.46 7.513 1.46c4.87 0 7.026-1.53 7.026-1.53v-2.156s-2.226 1.67-7.234 1.53c-5.01-.278-6.748-1.043-7.305-1.46z" fill="#CA8000"/><path d="M34.435 24.626c4.034 0 7.304-.765 7.304-1.67 0-.904-3.27-1.669-7.304-1.669-4.035 0-7.305.696-7.305 1.6 0 .974 3.27 1.74 7.305 1.74z" stroke="#002140" stroke-linecap="round" stroke-linejoin="round"/><path d="M27.13 22.887v2.226c0 .904 3.27 1.67 7.305 1.67 4.034 0 7.304-.696 7.304-1.67v-2.226" stroke="#002140" stroke-linecap="round" stroke-linejoin="round"/><path d="M34.435 23.444c1.53 0 2.783-.279 2.783-.557s-1.253-.556-2.783-.556-2.783.278-2.783.556 1.252.557 2.783.557z" stroke="#CA8000" stroke-miterlimit="10"/><path d="M11.548 23.86l-1.6.766 2.713 1.67 1.182-.766-2.295-1.67zM41.044 26.018l1.46 1.252s-2.573.765-3.338.765l-1.461-1.252 3.339-.765z" fill="#002140"/></svg>