<svg width="48" height="48" fill="none" xmlns="http://www.w3.org/2000/svg"><path d="M30.33 10.659v-2.4s-.625-2.47-2.643-2.47h-7.443s-2.226.281-2.226 1.905v2.965h2.365s0-2.47 1.67-2.47h4.382s1.113.634 1.113 2.329l2.783.14zM16.626 41.294V11.083s-4.87.423-4.87 4.235c0 3.812-.278 21.53-.278 21.53s.626 4.235 5.148 4.446z" fill="#0164BF"/><path d="M31.443 10.659H16.626v30.988h13.983s5.078-1.13 5.078-5.224V15.812c.07 0 .696-3.389-4.244-5.153z" fill="#003C73"/><path d="M22.052 15.177c0-.918-.765-1.695-1.67-1.695-.904 0-1.67.777-1.67 1.695v21.105c0 .918.766 1.695 1.67 1.695.905 0 1.67-.777 1.67-1.695V15.177zM27.27 15.177c0-.918-.765-1.695-1.67-1.695-.904 0-1.67.777-1.67 1.695v21.105c0 .918.766 1.695 1.67 1.695.905 0 1.67-.777 1.67-1.695V15.177zM32.487 15.177c0-.918-.765-1.695-1.67-1.695-.904 0-1.67.777-1.67 1.695v21.105c0 .918.766 1.695 1.67 1.695.905 0 1.67-.777 1.67-1.695V15.177z" fill="#002140"/><path d="M32.487 19.059l-2.783-1.27-2.156 2.046L28.59 26.4l4.94-.706-1.044-6.635z" fill="#F9B5FE"/><path d="M30.47 10.73H16.835c-2.922 0-5.287 2.4-5.287 5.364v20.047c0 2.965 2.365 5.365 5.287 5.365H30.47c2.921 0 5.287-2.4 5.287-5.365V16.094c.07-2.965-2.366-5.365-5.287-5.365zM16.557 41.435V10.8" stroke="#002140" stroke-linecap="round" stroke-linejoin="round"/><path d="M16.556 45.318c.974 0 1.74-.777 1.74-1.765 0-.988-.766-1.765-1.74-1.765-.973 0-1.739.777-1.739 1.765 0 .988.766 1.765 1.74 1.765zM30.4 45.318c.974 0 1.739-.777 1.739-1.765 0-.988-.765-1.765-1.74-1.765-.973 0-1.738.777-1.738 1.765 0 .988.765 1.765 1.739 1.765z" fill="#002140"/><path d="M30.261 10.518V8.329c0-1.482-1.183-2.682-2.643-2.682h-7.096c-1.461 0-2.644 1.2-2.644 2.682v2.189" stroke="#002140" stroke-linecap="round" stroke-linejoin="round"/><path d="M27.617 10.588v-.917c0-.918-.765-1.694-1.67-1.694h-3.686c-.904 0-1.67.776-1.67 1.694v.917M21.774 10.87c1.252.848 5.565 3.954 7.722 6.918 0 0 .904-3.459.348-6.847M27.409 19.835l1.043 6.706 4.94-.776-1.044-6.848-2.783-1.129-2.156 2.047z" stroke="#002140" stroke-linecap="round" stroke-linejoin="round"/><path d="M16.557 44.188a.628.628 0 00.626-.635.628.628 0 00-.626-.636.628.628 0 00-.626.636c0 .353.278.635.626.635zM30.4 44.188a.628.628 0 00.626-.635.628.628 0 00-.626-.636.628.628 0 00-.626.636c0 .353.278.635.626.635z" fill="#003C73"/></svg>