<svg width="48" height="48" fill="none" xmlns="http://www.w3.org/2000/svg"><path d="M41.702 7.304c.443-.18.952.09.882.719l-.41 4.544c-.03.518-.57.74-.949.42l-.297-.23-.856-.658-5.524 7.762c-.568.777-1.066.876-1.948 0l-1.988-2.045c-.424-.425-.838-.62-1.167 0l-4.567 8.789c-.425.713-1.001.846-1.802 0l-2.017-1.813c-.614-.555-.995-.497-1.228 0l-3.801 8.362c-.562 1.172-2.035.366-1.403-.908l4.441-9.906c.548-1.01 1.243-.736 1.994 0l1.817 1.725c.68.727.963.66 1.362 0l4.59-8.751c.46-.838 1.202-.6 1.784 0l2.14 2.167c.524.538.949.693 1.46 0l4.635-6.479-1.013-.844c-.428-.285-.565-.893-.006-1.146l1.633-.721 2.235-.987h.003z" fill="#03D47C"/><path d="M40.93 12.754l-.023.032v24.022c0 3.456-1.234 4.65-4.65 4.65h-24.5l-.047-.012c-3.409 0-4.649-1.19-4.651-4.638V12.207c.002-3.454 1.24-4.647 4.654-4.647l.046-.011h24.61c1.36.011 2.364.218 3.077.692l.024.053-1.633.721c-.56.253-.422.861.005 1.146l1.014.844-4.634 6.48c-.513.692-.938.537-1.462 0l-2.139-2.168c-.582-.6-1.324-.838-1.784 0l-4.59 8.751c-.4.66-.682.727-1.363 0l-1.816-1.725c-.751-.736-1.447-1.01-1.994 0l-4.442 9.906c-.631 1.274.844 2.08 1.403.908l3.802-8.362c.233-.497.614-.555 1.228 0l2.017 1.813c.8.846 1.374.713 1.802 0l4.567-8.79c.329-.619.74-.424 1.167 0l1.988 2.046c.882.876 1.38.777 1.947 0l5.525-7.762.856.657-.003-.005zM37.264 33.91V23.44c0-.466-.16-.774-.745-.774h-3.167c-.585 0-.745.305-.745.774v10.47c0 .466.16.774.745.774h3.167c.585 0 .745-.305.745-.774zm-6.82 0v-5.187c0-.465-.16-.774-.745-.774h-3.167c-.585 0-.745.306-.745.774v5.187c0 .466.16.774.745.774h3.167c.585 0 .745-.305.745-.774zm-6.82 0v-2.86c0-.465-.16-.773-.745-.773h-3.166c-.585 0-.746.305-.746.773v2.86c0 .466.16.774.746.774h3.166c.585 0 .746-.305.746-.774z" fill="#FBCCFF"/><path d="M37.264 23.44v10.47c0 .466-.16.775-.745.775h-3.167c-.585 0-.745-.306-.745-.774V23.44c0-.466.16-.774.745-.774h3.167c.585 0 .745.305.745.774z" fill="#5AB0FF"/><path d="M30.444 28.723v5.187c0 .466-.16.774-.745.774h-3.167c-.585 0-.745-.305-.745-.774v-5.187c0-.465.16-.774.745-.774h3.167c.585 0 .745.306.745.774z" fill="#8DC8FF"/><path d="M23.623 31.05v2.86c0 .466-.16.774-.745.774h-3.166c-.586 0-.746-.305-.746-.774v-2.86c0-.465.16-.774.745-.774h3.167c.585 0 .745.306.745.774z" fill="#5AB0FF"/><path d="M7.062 12.207v24.59M36.257 7.549h-24.5M7.062 12.207c0-3.454 1.237-4.646 4.651-4.646M40.905 12.786v24.01M39.446 8.238c-.713-.474-1.717-.68-3.077-.692h-.113M36.37 41.457H11.757M7.062 36.796v.012c0 3.445 1.24 4.638 4.651 4.638M40.905 36.808c0 3.456-1.234 4.65-4.651 4.65M12.185 10.65v25.99M9.387 11.944h2.797M10.555 14.976h1.63M9.387 18.121h2.797M10.555 21.153h1.63M9.387 24.295h2.797M10.555 27.318h1.63M9.387 30.463h2.797M10.555 33.494h1.63M9.387 36.64h2.797M38.183 36.64H12.185M36.891 39.435v-2.796M33.858 38.268V36.64M30.711 39.435v-2.796M27.681 38.268V36.64M24.535 39.435v-2.796M21.51 38.268V36.64M18.36 39.435v-2.796M15.331 38.268V36.64M12.185 39.435v-2.796M22.879 34.684h-3.167M19.712 34.684c-.586 0-.746-.305-.746-.774M18.964 33.91v-2.86M22.878 34.684c.585 0 .746-.305.746-.774M22.879 30.28h-3.167M19.712 30.28c-.586 0-.746.305-.746.773M22.878 30.28c.585 0 .746.305.746.773M23.624 33.91v-2.86M29.699 34.684h-3.167M26.532 34.684c-.585 0-.745-.305-.745-.774M25.783 33.91v-5.187M29.698 34.684c.585 0 .745-.305.745-.774M29.699 27.95h-3.167M26.532 27.95c-.585 0-.745.305-.745.773M29.698 27.95c.585 0 .745.305.745.773M30.444 33.91v-5.187M36.516 34.684h-3.167M33.349 34.684c-.585 0-.745-.305-.745-.774M32.603 33.91V23.44M36.515 34.684c.585 0 .745-.305.745-.774M36.516 22.669h-3.167M33.349 22.669c-.585 0-.745.305-.745.773M36.515 22.669c.585 0 .745.305.745.773M37.263 33.91V23.44M37.84 10.158l1.013.844M40.075 12.1l.856.654.297.23M37.834 9.012l1.633-.721 2.235-.986M42.177 12.564l.408-4.544M37.84 10.159c-.428-.286-.565-.894-.006-1.147M41.228 12.983c.379.323.92.1.95-.418M42.585 8.02c.066-.628-.443-.896-.882-.719M40.075 12.1l-5.524 7.761M38.853 11.002l-4.637 6.479M29.448 17.816l-4.567 8.789M28.831 15.313l-4.59 8.752M19.83 24.793l-3.8 8.36M19.069 22.34l-4.442 9.906M32.603 19.861l-1.988-2.045M32.755 17.48l-2.14-2.167M23.08 26.605l-2.018-1.813M22.878 24.065l-1.816-1.725M16.03 33.154c-.562 1.172-2.035.366-1.403-.908M19.069 22.34c.547-1.01 1.243-.736 1.994 0M19.831 24.792c.233-.497.615-.556 1.229 0M22.878 24.065c.681.727.964.66 1.363 0M23.08 26.605c.8.847 1.373.713 1.801 0M29.449 17.815c.329-.62.74-.424 1.167 0M28.831 15.314c.46-.838 1.202-.6 1.784 0M34.216 17.481c-.513.693-.938.539-1.462 0M34.55 19.86c-.567.778-1.064.877-1.947 0" stroke="#002140" stroke-width=".706" stroke-linecap="round" stroke-linejoin="round"/></svg>